<?xml version="1.0" standalone="no"?>
<!DOCTYPE svg PUBLIC "-//W3C//DTD SVG 20010904//EN"
 "http://www.w3.org/TR/2001/REC-SVG-20010904/DTD/svg10.dtd">
<svg version="1.0" xmlns="http://www.w3.org/2000/svg"
 width="512.000000pt" height="512.000000pt" viewBox="0 0 512.000000 512.000000"
 preserveAspectRatio="xMidYMid meet">
<metadata>
Created by potrace 1.16, written by Peter Selinger 2001-2019
</metadata>
<g transform="translate(0.000000,512.000000) scale(0.100000,-0.100000)"
fill="#000000" stroke="none">
<path d="M2490 4183 c-253 -43 -544 -178 -790 -365 l-65 -50 75 74 c41 40 121
105 178 143 109 73 119 94 27 51 -67 -30 -134 -75 -200 -134 -27 -25 -77 -63
-110 -85 -359 -242 -616 -616 -680 -991 -19 -113 -19 -313 0 -441 14 -91 14
-114 -2 -259 -20 -186 -11 -317 31 -431 32 -88 46 -103 85 -88 28 10 31 9 57
-29 15 -21 50 -57 77 -78 32 -26 44 -41 36 -45 -8 -2 -95 -18 -194 -35 -99
-17 -205 -36 -235 -43 -51 -12 -53 -14 -33 -25 44 -24 169 -33 553 -39 412 -7
420 -9 145 -39 -130 -13 -259 -40 -372 -75 -39 -13 -49 -35 -21 -50 40 -21
255 -4 498 41 260 47 455 72 730 95 488 40 847 114 1372 284 207 67 377 117
621 181 215 56 261 88 110 76 -184 -15 -350 -53 -681 -157 -107 -33 -196 -58
-199 -55 -8 7 121 69 231 110 120 45 307 97 457 127 108 22 114 24 174 75 95
81 147 143 143 173 -4 36 -56 59 -162 74 l-86 11 6 67 c9 88 -10 210 -51 333
-19 60 -37 143 -44 206 -36 316 -169 618 -353 802 -80 80 -287 212 -304 195
-2 -2 23 -22 56 -46 177 -124 347 -336 426 -531 43 -107 21 -100 -35 10 -127
250 -291 444 -464 549 -34 21 -98 64 -142 96 -173 124 -357 194 -570 216 -152
16 -148 15 -140 50 10 45 -8 59 -74 58 -31 -1 -67 -4 -81 -6z m580 -204 c85
-23 242 -95 280 -128 24 -21 23 -21 -25 2 -83 40 -234 98 -335 129 -78 23 -86
27 -45 23 28 -3 84 -15 125 -26z m-190 -279 c11 -11 20 -26 20 -32 -1 -20 -24
-45 -37 -41 -9 3 -13 -8 -13 -37 0 -31 6 -47 25 -64 l25 -24 -44 -11 c-57 -14
-95 -14 -152 0 -63 16 -54 29 20 29 57 0 67 3 84 25 25 31 18 65 -12 62 -17
-2 -22 4 -24 31 -7 71 61 109 108 62z m516 -62 c2 -52 10 -60 54 -53 34 6 39
4 45 -16 10 -30 -19 -52 -60 -46 -19 3 -40 -2 -56 -14 -24 -17 -28 -17 -82 0
-72 22 -77 28 -33 37 41 7 66 36 66 76 0 27 34 62 55 55 5 -2 10 -20 11 -39z
m-316 9 c18 -9 27 -24 31 -51 4 -22 15 -45 25 -53 16 -12 15 -13 -15 -13 -22
0 -51 13 -89 41 -50 35 -62 40 -94 35 -32 -5 -36 -4 -31 10 14 38 122 57 173
31z m-531 -3 l62 -7 -23 -24 c-37 -40 -52 -44 -92 -28 -42 18 -149 20 -195 4
-32 -11 -51 -35 -51 -63 0 -12 10 -16 34 -16 32 0 66 -20 66 -39 0 -28 -33
-111 -44 -111 -19 0 -39 27 -33 45 4 8 2 17 -3 20 -17 11 -135 -52 -167 -89
-36 -41 -43 -41 -114 11 -54 38 -80 43 -72 13 3 -11 -2 -41 -12 -67 l-18 -46
-93 6 c-100 6 -109 2 -116 -43 -2 -21 -14 -29 -67 -47 -73 -25 -103 -49 -132
-110 -18 -36 -20 -55 -15 -100 5 -45 3 -61 -15 -93 -25 -44 -46 -56 -109 -64
-58 -6 -70 -24 -70 -108 0 -89 -20 -137 -68 -163 -33 -18 -37 -25 -40 -62 -2
-33 -7 -43 -21 -43 -24 0 -41 -20 -41 -50 0 -17 -8 -29 -22 -35 -35 -15 -37
-70 -3 -105 20 -21 26 -36 23 -61 -3 -32 -5 -34 -43 -34 -37 0 -40 -2 -40 -27
-1 -15 -11 -37 -24 -49 -18 -17 -21 -27 -15 -52 3 -18 10 -37 15 -42 10 -13
12 -108 4 -157 -4 -21 -3 -50 3 -66 5 -16 6 -35 2 -42 -16 -26 -42 92 -47 215
-15 335 118 755 337 1068 85 122 290 326 405 403 272 185 601 284 854 258z
m193 -50 c21 -15 35 -30 32 -35 -9 -15 -97 -10 -118 6 -11 8 -29 15 -40 15
-20 1 -20 1 3 20 32 27 78 25 123 -6z m198 -29 c0 -10 -10 -15 -34 -15 -19 0
-37 4 -40 8 -2 4 11 6 30 4 21 -3 34 0 34 7 0 6 2 11 5 11 3 0 5 -7 5 -15z
m-446 -17 c41 -19 49 -20 84 -9 45 15 59 10 74 -27 18 -43 18 -75 2 -101 -14
-21 -21 -23 -60 -17 -41 5 -161 -6 -213 -20 -21 -6 -23 -5 -15 17 5 13 9 44 9
69 0 41 -3 47 -38 69 -47 31 -35 41 50 41 44 0 76 -6 107 -22z m1036 -36 c0
-15 -86 -49 -106 -42 -14 5 -6 12 36 28 62 24 70 25 70 14z m-203 -58 c356
-103 710 -473 848 -887 67 -201 69 -351 7 -409 -60 -56 -87 -59 -279 -27 -171
28 -333 28 -478 0 -412 -82 -914 -251 -1426 -481 -449 -202 -510 -221 -630
-195 -37 7 -86 23 -109 35 -50 26 -128 96 -153 138 -17 30 -17 31 7 58 20 24
26 26 40 15 9 -7 27 -11 41 -8 30 5 57 -29 34 -44 -7 -4 -17 -5 -21 -3 -21 13
-27 -10 -9 -35 41 -58 187 -110 268 -95 91 16 189 95 254 205 52 88 131 271
214 499 37 102 84 221 105 265 21 44 67 141 102 215 111 233 240 419 369 531
261 230 535 304 816 223z m326 -38 c45 -19 68 -48 74 -96 l6 -42 -84 62 c-103
76 -96 69 -79 80 21 13 45 12 83 -4z m-1423 -43 c-1 -17 -28 -43 -55 -53 -42
-16 -44 -2 -5 31 34 27 60 37 60 22z m332 -37 c-24 -17 -51 -25 -107 -29 -86
-8 -138 -26 -157 -56 -10 -16 -23 -21 -57 -21 l-44 0 6 -41 5 -42 -28 32 c-29
31 -53 38 -79 22 -12 -8 -13 -14 -2 -37 18 -40 0 -52 -44 -31 -19 9 -35 23
-35 31 0 13 -68 70 -92 78 -8 3 11 57 29 87 1 1 17 -9 35 -23 50 -37 101 -56
155 -56 64 0 116 15 139 41 41 46 111 66 238 68 l70 1 -32 -24z m-72 -59 c0
-2 -10 -12 -22 -23 -12 -10 -18 -13 -14 -6 9 15 -7 15 -57 1 -37 -10 -46 -21
-73 -94 -7 -19 -8 -19 -11 3 -7 39 15 89 45 100 44 17 132 30 132 19z m-581
-69 l34 -11 -26 -14 c-25 -12 -31 -25 -30 -60 1 -7 -10 -13 -22 -13 -13 0 -30
-2 -38 -6 -9 -3 -19 6 -27 26 -7 17 -17 33 -23 37 -6 3 4 -19 21 -51 l30 -56
-34 -15 c-19 -8 -55 -29 -79 -46 l-45 -32 -25 23 -25 23 0 -22 c0 -13 -8 -25
-22 -30 -14 -5 -17 -10 -10 -15 25 -15 10 -49 -48 -111 -33 -36 -78 -92 -100
-126 -32 -50 -41 -58 -46 -43 -4 11 -13 33 -19 50 -15 37 -11 44 37 66 21 10
49 35 65 59 24 37 27 50 24 109 -3 77 11 113 59 153 17 15 47 29 68 33 56 10
71 21 78 59 l6 34 82 -5 c44 -3 96 -10 115 -16z m102 -81 c24 -19 51 -36 59
-40 10 -4 9 -6 -6 -6 -28 -1 -46 -24 -38 -46 5 -11 1 -21 -11 -27 -14 -8 -15
-12 -4 -19 15 -9 16 -8 -26 -29 -31 -16 -85 -103 -72 -116 4 -4 25 0 47 9 l40
16 -21 -30 c-12 -17 -33 -35 -48 -40 -67 -25 -136 -67 -207 -125 -63 -53 -82
-64 -113 -64 -39 0 -81 23 -80 43 1 16 221 178 287 211 43 22 51 30 42 41 -6
7 -10 28 -8 46 2 27 10 37 43 53 45 23 54 50 35 97 -27 64 13 77 81 26z m303
-48 c-10 -12 -42 -32 -70 -44 -50 -23 -108 -78 -117 -112 -3 -10 -8 -35 -12
-55 -3 -21 -11 -38 -17 -38 -6 0 -8 3 -5 7 4 3 -3 17 -14 29 -21 23 -22 24 -5
68 32 85 143 164 230 165 29 1 29 1 10 -20z m-635 -218 c-67 -75 -85 -85 -49
-27 22 36 100 109 108 101 2 -2 -24 -36 -59 -74z m326 -110 c-17 -36 -48 -102
-67 -146 -19 -44 -40 -91 -46 -105 l-11 -25 0 23 c-2 50 70 230 122 309 36 53
37 16 2 -56z m-562 -168 c-94 -185 -123 -253 -120 -272 4 -16 -4 -45 -19 -76
-29 -60 -48 -195 -40 -280 4 -47 1 -69 -13 -100 l-19 -40 -1 146 c-1 126 3
161 24 242 29 112 75 228 155 387 49 98 140 240 154 240 2 0 -52 -111 -121
-247z m622 197 c-3 -6 1 -17 10 -26 25 -25 15 -49 -23 -52 -17 -2 -32 -1 -32
3 0 10 40 85 46 85 3 0 2 -5 -1 -10z m-714 -50 c13 -47 10 -110 -5 -110 -19 0
-31 -39 -17 -53 16 -16 13 -41 -11 -92 -25 -51 -52 -62 -43 -17 3 15 2 21 -1
15 -4 -10 -9 -9 -21 3 -19 18 -39 13 -35 -10 2 -9 -2 -16 -8 -16 -5 0 -10 2
-10 4 0 2 -3 11 -6 20 -4 11 3 17 28 23 46 12 71 66 76 163 2 41 5 81 8 88 7
22 38 9 45 -18z m513 -42 c-18 -36 -130 -150 -164 -168 -20 -11 -21 -10 -9 12
21 42 81 109 131 149 28 21 52 39 54 39 3 0 -3 -15 -12 -32z m214 -33 c1 -1
-3 -14 -9 -29 -8 -16 -30 -34 -55 -45 -35 -16 -44 -26 -53 -57 -6 -21 -8 -62
-5 -90 7 -56 -3 -73 -65 -117 -14 -9 -21 -20 -17 -24 5 -5 11 -2 13 5 5 12 33
18 33 6 0 -15 -29 -55 -79 -109 -31 -33 -74 -94 -95 -135 -22 -41 -54 -97 -71
-125 -17 -27 -44 -79 -60 -115 -54 -125 -107 -187 -168 -197 -52 -8 -123 5
-149 28 -13 11 -17 18 -11 14 7 -3 49 -8 93 -11 79 -4 80 -4 115 28 27 25 49
67 90 168 30 74 69 154 85 177 17 23 45 77 64 120 49 114 87 187 102 196 8 4
14 15 14 24 0 8 18 38 40 65 22 28 40 58 40 66 0 9 17 52 37 95 l37 79 35 -7
c20 -4 37 -8 39 -10z m-435 -131 c-32 -57 -53 -64 -53 -20 0 55 8 67 44 64
l32 -2 -23 -42z m-93 -32 c0 -71 48 -104 119 -81 20 6 69 36 109 66 41 30 77
52 80 48 10 -9 -44 -107 -101 -184 -27 -36 -53 -74 -58 -83 -14 -25 -67 -51
-93 -44 -11 3 -31 21 -44 39 -12 18 -36 47 -53 63 -27 25 -38 29 -90 29 -32 0
-59 1 -59 3 0 7 45 90 63 116 19 26 86 65 115 66 7 0 12 -14 12 -38z m-350
-107 c15 -18 4 -89 -16 -106 -8 -6 -27 -9 -44 -5 -33 6 -40 -7 -12 -23 14 -9
15 -10 1 -11 -22 0 -53 36 -46 55 4 9 19 15 38 15 28 0 31 2 25 24 -3 13 -9
31 -12 39 -3 10 1 17 13 20 32 8 40 7 53 -8z m233 -123 c15 -31 0 -53 -44 -69
-19 -7 -28 -12 -21 -12 17 -1 15 -21 -3 -21 -23 0 -31 49 -11 68 14 14 18 15
25 3 15 -23 31 -2 32 42 0 23 3 35 6 27 2 -8 10 -25 16 -38z m123 -88 c7 3 16
1 19 -5 4 -5 11 -6 17 -3 7 4 8 2 4 -4 -4 -7 -1 -12 8 -12 9 0 16 -9 16 -20 0
-10 8 -23 18 -29 16 -9 16 -11 0 -27 -17 -17 -18 -17 -38 1 -11 10 -20 28 -20
39 0 12 -4 26 -8 33 -9 14 -82 12 -81 -2 3 -22 -3 -49 -7 -38 -3 7 -11 10 -17
8 -48 -14 -67 -15 -67 -1 0 15 12 25 80 70 34 22 35 22 49 3 7 -10 19 -16 27
-13z m-383 -17 c0 -37 -31 -73 -83 -98 -51 -23 -55 -26 -58 -41 -2 -8 8 -25
21 -38 23 -22 23 -25 8 -52 -21 -36 -32 -36 -25 1 4 19 0 38 -10 52 -23 33
-20 54 8 67 18 8 23 16 19 33 -5 18 -3 20 15 15 27 -9 72 33 72 67 0 13 3 27
7 31 15 14 27 -2 26 -37z m336 -97 c3 0 17 7 29 16 12 8 22 11 22 6 0 -19 -37
-41 -80 -48 -58 -9 -70 -19 -70 -61 0 -31 -2 -34 -15 -23 -9 7 -14 18 -12 24
3 6 0 19 -4 28 -7 12 -2 21 19 36 35 24 62 34 62 22 0 -20 22 -9 28 13 5 18 7
19 10 5 2 -10 7 -18 11 -18z m-341 -92 c10 -10 15 -10 23 2 8 12 9 9 5 -10 -3
-14 -6 -33 -6 -42 0 -15 -9 -18 -55 -18 l-55 0 28 40 c29 42 41 47 60 28z
m166 -13 c3 -9 0 -15 -9 -15 -8 0 -15 7 -15 15 0 8 4 15 9 15 5 0 11 -7 15
-15z m-243 -99 c-23 -28 24 -125 53 -110 6 4 -18 -21 -53 -55 -59 -56 -81 -66
-81 -39 0 7 10 22 22 35 21 22 21 23 3 56 -24 44 -14 82 28 107 38 24 43 25
28 6z m406 -31 c-1 -19 -5 -35 -8 -35 -4 0 -9 -9 -12 -20 -7 -26 -49 -44 -82
-36 -34 9 -27 28 13 38 22 6 40 22 57 48 14 22 27 40 30 40 3 0 4 -16 2 -35z
m-99 3 c7 -7 12 -16 12 -20 0 -13 -37 -9 -49 5 -20 24 14 38 37 15z m-77 -41
c22 4 29 2 29 -11 0 -17 -41 -32 -65 -22 -8 3 -15 15 -15 28 0 16 3 19 11 11
7 -7 25 -9 40 -6z"/>
<path d="M2985 3201 c-126 -45 -255 -128 -411 -263 -105 -90 -216 -206 -275
-286 -51 -69 -8 -38 82 60 181 198 369 344 576 448 115 58 128 78 28 41z"/>
<path d="M3650 3136 c0 -2 24 -21 53 -42 28 -21 84 -66 123 -101 40 -35 75
-63 79 -63 23 0 -114 143 -174 182 -39 24 -81 37 -81 24z"/>
<path d="M3476 3045 c-20 -20 -20 -39 -1 -55 18 -15 45 2 45 30 0 29 -25 43
-44 25z"/>
<path d="M2997 2973 c-14 -13 -7 -110 8 -123 35 -29 59 41 35 104 -9 25 -29
34 -43 19z"/>
<path d="M3097 2912 c-18 -20 -22 -42 -8 -42 18 0 54 37 47 48 -10 17 -20 15
-39 -6z"/>
<path d="M3415 2886 c-28 -28 -32 -54 -9 -63 20 -8 66 36 62 61 -4 29 -25 30
-53 2z"/>
<path d="M3266 2751 c-10 -15 18 -41 33 -32 12 8 12 12 2 25 -15 18 -27 20
-35 7z"/>
<path d="M3786 2695 c-8 -22 1 -35 25 -35 15 0 20 6 17 22 -4 27 -33 36 -42
13z"/>
<path d="M2504 2666 c-7 -19 3 -36 22 -36 10 0 14 8 12 22 -4 26 -26 36 -34
14z"/>
<path d="M3702 2658 c-30 -30 -1 -68 53 -68 38 0 44 28 11 57 -30 26 -46 29
-64 11z"/>
<path d="M2825 2610 c-21 -23 -13 -50 14 -50 23 0 56 43 46 60 -10 16 -40 12
-60 -10z"/>
<path d="M3534 2526 c-7 -19 3 -36 22 -36 10 0 14 8 12 22 -4 26 -26 36 -34
14z"/>
<path d="M3084 2475 c-8 -21 3 -48 19 -43 19 7 22 58 2 58 -8 0 -18 -7 -21
-15z"/>
<path d="M3385 2464 c-31 -34 -34 -84 -6 -84 28 0 74 63 66 90 -9 27 -31 25
-60 -6z"/>
<path d="M3634 2475 c-7 -18 3 -35 21 -35 15 0 28 27 19 41 -8 14 -34 11 -40
-6z"/>
<path d="M3134 2445 c-9 -14 -13 -32 -10 -41 6 -15 9 -14 31 6 28 26 33 60 10
60 -8 0 -22 -11 -31 -25z"/>
<path d="M2566 2451 c-10 -16 5 -41 26 -41 14 0 19 6 16 22 -3 24 -32 36 -42
19z"/>
<path d="M2502 2177 c-27 -28 -29 -57 -4 -57 23 0 62 40 62 63 0 25 -33 21
-58 -6z"/>
<path d="M2146 2134 c-7 -19 1 -34 19 -34 15 0 28 27 19 41 -9 14 -31 10 -38
-7z"/>
<path d="M2044 1916 c-7 -19 13 -56 31 -56 17 0 19 23 5 51 -13 22 -28 25 -36
5z"/>
<path d="M1950 2990 c-8 -5 -25 -10 -37 -10 -24 0 -38 -14 -28 -29 6 -11 85
28 85 41 0 10 -2 10 -20 -2z"/>
<path d="M1450 1760 c-9 -6 -10 -10 -3 -10 6 0 15 5 18 10 8 12 4 12 -15 0z"/>
<path d="M3287 4104 c-4 -4 -7 -16 -7 -26 0 -15 23 -30 93 -63 122 -57 193
-78 219 -64 27 15 19 29 -41 71 -72 50 -242 103 -264 82z"/>
<path d="M3878 3654 c-25 -55 39 -108 83 -68 39 35 11 94 -45 94 -19 0 -30 -7
-38 -26z"/>
<path d="M4024 3483 c-5 -20 -2 -30 15 -44 39 -32 74 4 46 47 -21 33 -53 31
-61 -3z"/>
<path d="M4240 1684 c-237 -61 -370 -99 -570 -164 -537 -173 -852 -237 -1401
-285 -153 -14 -327 -32 -386 -40 -181 -26 -573 -99 -573 -106 0 -14 52 -40
112 -55 50 -13 98 -15 228 -12 l165 5 104 -39 c337 -126 763 -160 1116 -88
332 67 703 257 1060 543 124 99 265 236 265 257 0 13 -10 12 -120 -16z m-840
-519 c0 -9 -83 -47 -177 -81 -337 -122 -727 -153 -1048 -83 -85 18 -230 67
-223 75 2 2 29 -3 59 -11 114 -30 298 -56 434 -62 250 -10 494 26 775 116 152
49 180 56 180 46z"/>
</g>
</svg>